<svg xmlns="http://www.w3.org/2000/svg" width="820" height="320" viewBox="0 0 820 320" font-family="Plus Jakarta Sans,Segoe UI,Arial,sans-serif">
<rect width="820" height="320" fill="#050a18"/>
<text x="40" y="24" font-size="18" font-weight="700" fill="#e2e8f0">Max Drawdown: DCA Stress Scenarios</text>
<text x="40" y="42" font-size="12" fill="#7a8ba5">Lower is better. Basket: ADA, BNB, ETH, XRP, SOL.</text>
<line x1="190.0" y1="74" x2="190.0" y2="280" stroke="#18223a" stroke-width="1"/>
<text x="190.0" y="298" font-size="11" fill="#7a8ba5" text-anchor="middle">0%</text>
<line x1="321.8" y1="74" x2="321.8" y2="280" stroke="#18223a" stroke-width="1"/>
<text x="321.8" y="298" font-size="11" fill="#7a8ba5" text-anchor="middle">20%</text>
<line x1="453.5" y1="74" x2="453.5" y2="280" stroke="#18223a" stroke-width="1"/>
<text x="453.5" y="298" font-size="11" fill="#7a8ba5" text-anchor="middle">40%</text>
<line x1="585.3" y1="74" x2="585.3" y2="280" stroke="#18223a" stroke-width="1"/>
<text x="585.3" y="298" font-size="11" fill="#7a8ba5" text-anchor="middle">60%</text>
<line x1="717.1" y1="74" x2="717.1" y2="280" stroke="#18223a" stroke-width="1"/>
<text x="717.1" y="298" font-size="11" fill="#7a8ba5" text-anchor="middle">80%</text>
<text x="180" y="100.0" font-size="11" fill="#e2e8f0" text-anchor="end">A: Perfect</text>
<rect x="190" y="84.0" width="497.1" height="11" fill="#f87171"/>
<text x="691.1" y="93.0" font-size="10" fill="#f87171">75%</text>
<rect x="190" y="97.0" width="211.1" height="11" fill="#34d399"/>
<text x="405.1" y="106.0" font-size="10" fill="#34d399">32%</text>
<text x="180" y="140.0" font-size="11" fill="#e2e8f0" text-anchor="end">B: Delay 2–5d</text>
<rect x="190" y="124.0" width="497.5" height="11" fill="#f87171"/>
<text x="691.5" y="133.0" font-size="10" fill="#f87171">76%</text>
<rect x="190" y="137.0" width="211.5" height="11" fill="#34d399"/>
<text x="405.5" y="146.0" font-size="10" fill="#34d399">32%</text>
<text x="180" y="180.0" font-size="11" fill="#e2e8f0" text-anchor="end">C: Amt ±20%</text>
<rect x="190" y="164.0" width="497.1" height="11" fill="#f87171"/>
<text x="691.1" y="173.0" font-size="10" fill="#f87171">75%</text>
<rect x="190" y="177.0" width="211.5" height="11" fill="#34d399"/>
<text x="405.5" y="186.0" font-size="10" fill="#34d399">32%</text>
<text x="180" y="220.0" font-size="11" fill="#e2e8f0" text-anchor="end">D: Skip 4th</text>
<rect x="190" y="204.0" width="497.8" height="11" fill="#f87171"/>
<text x="691.8" y="213.0" font-size="10" fill="#f87171">76%</text>
<rect x="190" y="217.0" width="213.5" height="11" fill="#34d399"/>
<text x="407.5" y="226.0" font-size="10" fill="#34d399">32%</text>
<text x="180" y="260.0" font-size="11" fill="#e2e8f0" text-anchor="end">E: Combined</text>
<rect x="190" y="244.0" width="497.9" height="11" fill="#f87171"/>
<text x="691.9" y="253.0" font-size="10" fill="#f87171">76%</text>
<rect x="190" y="257.0" width="213.8" height="11" fill="#34d399"/>
<text x="407.8" y="266.0" font-size="10" fill="#34d399">32%</text>
<rect x="600" y="52" width="12" height="12" rx="2" fill="#34d399"/>
<text x="616" y="62" font-size="12" fill="#e2e8f0">Modulator</text>
<rect x="690" y="52" width="12" height="12" rx="2" fill="#f87171"/>
<text x="706" y="62" font-size="12" fill="#e2e8f0">Buy &amp; Hold</text>
</svg>