<svg xmlns="http://www.w3.org/2000/svg" width="820" height="420" viewBox="0 0 820 420" font-family="Plus Jakarta Sans,Segoe UI,Arial,sans-serif">
<rect width="820" height="420" fill="#050a18"/>
<text x="20" y="28" font-size="18" font-weight="700" fill="#e2e8f0">Underwater Curve — Baseline vs Worst-Case DCA</text>
<text x="20" y="48" font-size="12" fill="#7a8ba5">Depth of decline from peak. Basket: ADA, BNB, ETH, XRP, SOL.</text>
<line x1="70" y1="64.0" x2="790" y2="64.0" stroke="#18223a" stroke-width="1"/>
<text x="64" y="67.0" font-size="10" fill="#7a8ba5" text-anchor="end">-0%</text>
<line x1="70" y1="138.0" x2="790" y2="138.0" stroke="#18223a" stroke-width="1"/>
<text x="64" y="141.0" font-size="10" fill="#7a8ba5" text-anchor="end">-19%</text>
<line x1="70" y1="212.0" x2="790" y2="212.0" stroke="#18223a" stroke-width="1"/>
<text x="64" y="215.0" font-size="10" fill="#7a8ba5" text-anchor="end">-38%</text>
<line x1="70" y1="286.0" x2="790" y2="286.0" stroke="#18223a" stroke-width="1"/>
<text x="64" y="289.0" font-size="10" fill="#7a8ba5" text-anchor="end">-57%</text>
<line x1="70" y1="360.0" x2="790" y2="360.0" stroke="#18223a" stroke-width="1"/>
<text x="64" y="363.0" font-size="10" fill="#7a8ba5" text-anchor="end">-75%</text>
<text x="70.0" y="380" font-size="10" fill="#7a8ba5" text-anchor="middle">2020-04</text>
<text x="249.8" y="380" font-size="10" fill="#7a8ba5" text-anchor="middle">2021-11</text>
<text x="429.8" y="380" font-size="10" fill="#7a8ba5" text-anchor="middle">2023-05</text>
<text x="609.9" y="380" font-size="10" fill="#7a8ba5" text-anchor="middle">2024-12</text>
<text x="790.0" y="380" font-size="10" fill="#7a8ba5" text-anchor="middle">2026-07</text>
<polyline points="70,64 72,89 73,64 73,81 74,64 75,73 77,65 78,83 79,76 79,64 81,64 83,76 84,71 84,64 86,64 87,73 88,64 90,77 90,64 91,77 92,64 92,69 94,66 95,64 97,64 97,76 99,64 101,95 102,87 103,64 103,64 105,75 105,69 106,64 108,64 109,74 111,66 111,93 112,100 114,85 115,65 116,103 117,124 118,88 120,82 120,98 121,92 123,101 124,92 125,87 127,103 127,84 128,79 129,67 131,85 132,72 133,80 133,64 134,64 135,69 136,64 137,78 139,74 140,64 141,64 143,105 143,137 144,119 145,135 146,125 148,128 149,118 150,119 151,124 153,119 154,110 154,95 155,64 156,64 157,89 159,64 161,107 161,94 163,65 163,64 164,71 165,64 167,64 168,76 170,64 172,89 173,114 173,85 174,97 176,64 176,64 177,75 179,64 180,104 181,83 183,64 183,64 185,70 185,64 187,82 188,101 189,64 190,64 190,86 192,64 193,86 194,64 196,96 196,84 198,132 198,122 199,131 201,129 203,128 204,128 205,127 206,128 207,130 208,130 209,139 210,137 211,132 212,133 213,130 214,131 216,133 216,135 218,127 218,126 220,118 221,117 223,109 223,103 224,81 225,85 226,64 227,64 229,86 230,72 230,64 232,64 233,74 235,77 236,87 236,81 237,119 240,114 240,108 241,100 242,95 243,102 245,84 246,83 247,66 248,64 249,88 249,64 250,68 252,64 253,88 254,83 256,121 257,116 258,106 258,112 260,104 261,112 262,119 263,121 264,126 265,122 267,116 267,118 269,126 270,125 271,133 272,135 273,122 274,122 276,134 276,140 278,146 279,144 280,138 281,135 282,137 284,134 285,141 285,142 286,146 288,143 288,137 290,141 290,145 292,146 293,142 294,139 296,130 296,131 298,126 298,125 300,133 301,132 302,140 303,139 303,145 305,144 306,149 309,147 309,152 309,154 311,173 312,169 313,174 314,173 316,174 316,174 317,171 318,172 320,177 320,178 322,188 323,189 324,181 325,181 327,186 327,185 329,181 330,186 331,179 332,177 332,170 335,177 336,169 337,171 338,168 338,168 340,163 340,162 342,173 342,174 344,170 345,174 346,167 347,170 349,165 350,162 351,170 351,168 353,173 354,172 355,170 357,169 358,172 359,173 360,177 360,180 362,176 362,176 364,169 365,168 367,165 367,166 368,187 369,182 371,183 372,184 373,182 374,182 375,181 377,182 377,183 378,183 380,190 381,188 381,186 383,188 384,189 385,188 386,179 387,180 389,171 390,168 391,163 392,164 393,161 394,159 394,162 396,160 397,166 399,165 399,160 401,160 402,162 403,159 403,161 405,161 406,165 407,165 409,154 409,153 410,155 412,157 413,154 414,155 415,154 416,155 417,149 418,149 420,154 420,152 422,151 424,152 424,149 424,151 426,154 427,152 428,153 429,155 431,153 432,151 433,154 434,154 435,161 436,165 437,168 438,164 439,152 441,154 442,150 444,151 444,149 444,149 446,144 447,143 449,147 449,151 450,148 451,148 453,151 454,151 455,150 455,151 457,157 459,158 460,155 461,154 462,158 462,158 463,157 464,157 465,160 467,159 468,158 469,158 471,154 471,153 471,151 473,152 474,153 475,152 477,147 478,145 479,140 480,140 481,134 482,132 484,124 486,119 486,125 487,122 487,126 489,124 491,120 491,118 493,108 493,107 494,111 495,109 497,101 498,100 499,97 500,99 501,103 502,103 504,99 505,102 505,99 507,101 507,104 509,101 511,99 511,100 512,93 513,91 515,82 517,83 517,86 518,83 519,72 520,72 521,64 522,64 524,70 524,65 525,110 526,92 528,78 529,77 530,95 531,89 533,106 533,112 534,118 536,110 537,113 538,112 539,115 540,112 541,115 543,115 544,110 544,111 545,101 547,104 548,106 549,106 550,99 551,107 553,124 553,123 555,118 556,120 557,114 558,115 559,125 560,119 560,124 562,116 564,107 564,105 566,111 567,107 568,128 569,141 570,131 571,133 571,137 573,134 575,129 575,128 577,134 579,134 579,138 580,138 581,135 582,136 584,129 584,128 585,126 587,129 588,134 590,134 590,132 591,131 593,122 593,123 594,104 595,106 596,81 597,91 598,64 600,64 601,82 602,64 603,68 605,75 605,64 607,64 608,79 608,64 609,90 612,82 612,100 613,97 614,84 615,86 617,73 618,74 619,102 620,99 621,88 623,79 624,88 624,80 626,110 626,121 627,134 629,126 630,129 631,127 632,133 633,138 634,125 635,122 637,136 637,136 638,140 640,138 641,136 642,136 643,138 645,139 645,142 646,141 647,145 648,141 650,137 651,137 652,133 653,133 654,135 655,135 657,120 657,122 658,118 660,122 661,116 662,120 663,125 664,128 665,125 667,123 668,127 668,127 670,123 670,128 672,121 674,123 674,118 675,119 676,104 677,105 679,67 680,64 681,81 682,76 683,97 684,101 686,78 687,64 688,83 690,86 690,64 691,64 691,84 693,84 694,75 695,75 696,64 697,64 698,85 699,80 701,105 701,99 703,76 704,79 705,119 706,121 706,105 708,117 709,119 710,118 712,122 712,121 714,130 715,127 717,136 717,136 719,144 719,144 720,140 722,145 723,138 724,140 725,136 726,139 727,145 728,142 730,146 730,146 732,139 733,139 734,142 735,145 736,139 737,141 738,146 739,146 741,153 741,157 743,171 744,166 745,168 746,166 747,167 748,165 749,168 751,165 752,168 753,168 754,162 756,160 756,164 757,164 759,168 759,169 760,164 761,166 762,163 764,166 765,161 767,162 768,164 768,163 769,165 770,164 771,161 773,161 774,165 775,168 776,165 777,167 779,171 779,171 781,185 781,186 783,179 784,178 785,182 786,181 787,185 788,183 790,177 790,177" fill="none" stroke="#34d399" stroke-width="2"/>
<polyline points="70,64 72,89 73,64 73,81 74,64 75,73 77,65 78,83 79,75 80,102 81,88 82,75 84,81 85,64 86,64 87,73 88,64 90,75 90,64 91,77 92,64 92,69 94,66 95,64 97,64 97,76 99,64 101,95 102,87 103,64 103,64 105,75 105,69 106,64 108,64 109,74 111,66 111,93 112,100 114,85 115,65 116,103 117,124 118,101 120,96 120,111 121,105 123,113 124,105 125,100 126,106 127,116 128,92 129,79 131,97 132,84 133,92 134,64 134,64 135,69 136,64 137,78 139,74 140,64 141,64 143,105 143,137 144,119 145,135 147,123 148,126 149,116 150,117 151,122 153,117 154,107 154,93 155,64 156,64 157,89 159,64 161,107 161,94 163,65 163,64 164,71 165,64 167,64 168,76 170,64 172,89 173,114 173,85 174,97 176,64 176,64 177,75 179,64 180,104 181,83 183,64 183,64 185,70 185,64 187,82 188,101 189,64 190,64 190,86 192,64 193,86 194,64 196,96 196,84 198,132 198,122 199,131 201,129 203,128 203,128 205,127 206,128 207,130 208,130 209,140 210,137 211,132 212,133 213,131 214,131 216,133 216,135 218,127 218,126 220,118 221,117 223,110 223,103 224,81 225,84 226,64 227,64 229,86 230,72 230,64 232,64 233,74 235,77 236,87 236,81 237,119 240,114 240,108 241,101 242,95 243,102 245,83 246,83 247,65 248,64 249,88 249,64 250,69 252,64 253,88 254,83 256,121 257,116 258,106 258,112 259,104 261,112 262,119 263,120 264,126 265,122 267,116 267,118 269,126 270,125 271,133 272,136 273,123 274,122 276,134 276,140 278,147 279,145 280,139 281,135 282,138 284,135 285,142 285,142 286,146 288,144 288,138 290,141 290,146 292,147 293,142 294,139 296,131 296,131 298,127 298,126 300,133 301,132 302,140 303,139 303,145 305,144 306,149 309,148 309,153 309,155 311,175 312,170 313,175 314,174 316,175 317,173 318,175 318,173 320,178 320,179 322,189 323,190 324,181 325,182 327,187 327,186 329,182 330,187 331,180 332,177 332,171 335,178 336,170 337,172 338,169 338,169 340,164 340,163 342,174 342,175 344,171 345,175 346,169 347,171 349,166 350,164 351,172 351,170 353,175 354,174 355,172 357,170 358,173 359,174 360,178 360,182 362,178 362,178 364,172 365,171 367,167 367,168 368,189 369,183 371,184 372,186 373,184 374,184 375,183 377,183 377,185 378,184 380,191 381,189 381,188 383,189 384,191 385,190 386,181 387,182 389,173 390,170 391,165 392,166 392,164 394,161 394,164 396,162 397,168 399,167 399,162 401,162 402,164 402,164 403,161 405,162 406,167 407,167 409,155 409,155 410,157 412,159 413,157 414,157 415,155 416,156 417,150 418,151 420,156 421,154 422,153 424,154 424,152 424,153 426,156 427,154 428,155 429,158 430,156 432,154 433,156 434,156 435,163 436,167 437,170 438,166 439,154 441,156 442,152 444,153 444,151 444,152 446,146 447,145 449,149 449,150 449,153 451,150 453,153 454,153 455,152 455,153 457,159 459,160 460,158 461,157 462,160 462,160 463,160 464,160 465,163 467,162 468,160 469,162 471,156 471,156 471,153 473,154 474,156 475,155 477,150 478,148 479,143 480,143 481,136 482,135 484,127 486,122 486,127 487,124 487,128 489,126 491,123 491,120 493,111 493,110 494,113 495,111 497,104 498,103 499,100 500,102 501,106 502,106 504,102 505,105 505,102 507,108 508,104 509,104 511,102 511,103 512,96 513,94 515,85 517,87 517,89 518,87 519,75 520,75 521,64 522,64 524,70 524,65 525,110 526,92 528,78 529,77 530,95 531,89 533,106 533,112 534,118 536,111 537,114 538,113 539,116 540,113 541,116 543,116 544,110 544,112 545,103 547,104 548,107 549,107 550,100 551,108 553,125 553,123 555,119 556,121 557,114 558,116 559,125 560,120 560,125 562,116 564,108 565,106 566,111 567,107 568,128 569,142 570,132 571,134 571,138 573,134 575,130 575,129 577,136 579,135 579,139 580,139 581,136 582,137 584,130 584,129 585,127 587,130 588,135 590,135 590,133 591,132 593,124 593,124 594,105 595,107 596,83 597,92 598,64 600,64 601,82 602,64 603,68 605,75 605,64 607,64 608,79 608,64 609,90 612,82 612,100 613,97 614,85 615,86 617,73 618,74 619,102 620,100 621,89 623,79 624,88 624,80 626,111 626,121 627,135 629,126 630,129 631,127 632,133 633,139 634,126 635,122 637,136 637,136 638,140 640,139 641,136 642,136 643,138 645,139 645,142 646,141 647,145 648,141 650,137 651,137 652,133 653,134 654,135 655,135 657,121 657,123 658,118 660,123 661,116 662,120 663,125 664,128 665,125 667,123 668,127 668,128 670,124 670,128 672,121 674,123 674,119 675,120 676,105 677,105 679,68 680,64 681,81 682,76 683,97 684,101 686,78 687,64 688,83 690,86 690,64 691,64 691,84 693,84 694,75 695,75 696,64 697,64 698,85 699,79 701,104 701,98 703,75 704,79 705,118 706,121 706,105 708,116 709,119 710,117 712,122 712,120 714,129 715,127 717,136 717,136 719,144 719,144 720,139 722,145 723,138 724,140 725,136 726,139 727,145 728,142 730,146 730,145 732,138 733,139 734,141 735,145 736,139 737,141 738,145 739,145 741,153 741,157 743,171 745,168 745,166 746,165 747,167 748,165 749,168 751,164 752,167 753,167 754,162 756,160 756,163 757,163 759,168 759,168 760,164 761,166 762,162 764,166 765,161 767,162 768,164 768,163 769,165 770,164 771,161 773,162 774,165 775,168 776,165 777,167 779,171 779,171 781,185 781,186 783,179 784,178 785,182 786,181 787,184 788,183 790,177 790,177" fill="none" stroke="#fbbf24" stroke-width="2"/>
<polyline points="70,64 72,91 73,64 73,86 74,64 75,74 77,65 78,86 79,78 80,64 81,64 83,80 84,73 84,64 86,64 87,74 88,64 90,78 90,64 91,79 92,64 92,69 94,66 95,64 97,64 97,77 99,64 101,95 102,88 102,64 103,64 105,77 105,69 106,64 108,64 109,75 111,66 111,94 112,102 114,83 115,64 116,110 117,140 118,76 119,64 120,93 123,100 123,80 124,79 125,70 127,96 127,75 128,64 129,73 131,90 132,72 133,83 133,64 134,64 135,69 136,64 137,79 139,74 140,64 141,64 143,106 143,144 144,115 146,142 147,157 148,162 149,104 150,112 151,143 153,113 154,74 154,64 156,69 156,64 157,91 159,64 161,111 161,97 163,64 163,64 164,74 165,64 167,64 168,77 170,64 172,91 173,119 173,77 174,98 175,64 176,64 177,78 179,64 180,107 181,81 182,64 183,64 185,70 185,64 187,82 188,103 189,64 190,64 190,89 192,64 193,89 194,64 196,100 196,86 198,180 199,210 200,157 201,198 203,149 204,171 205,152 206,167 207,185 208,191 209,230 210,223 211,188 212,195 213,175 214,190 216,203 216,210 218,176 218,175 220,148 221,146 223,120 223,100 224,64 225,69 226,64 227,64 229,87 230,73 230,64 232,64 233,75 235,77 236,89 236,80 237,128 240,127 240,107 241,83 242,72 243,83 245,64 245,64 246,70 248,64 249,89 249,64 250,69 252,64 253,90 254,84 256,133 257,128 258,105 258,121 259,101 261,123 262,145 263,151 264,170 265,157 267,135 267,143 269,171 270,169 271,196 272,203 273,161 274,160 276,200 276,219 278,238 279,234 280,215 281,201 282,213 284,207 285,229 285,230 286,241 288,235 288,218 290,230 290,242 292,244 293,232 294,225 296,201 296,202 298,188 298,185 300,210 301,207 302,230 303,228 303,244 305,242 306,255 309,251 309,266 309,270 311,313 312,299 313,314 314,311 316,314 317,304 318,315 318,313 320,325 320,328 322,347 323,350 324,329 325,330 327,343 327,341 329,332 330,341 331,329 332,325 332,313 335,326 336,312 337,316 338,312 338,311 340,301 340,300 342,322 342,322 344,315 345,323 346,312 347,316 349,307 350,302 351,317 351,314 353,323 354,322 355,318 357,316 358,321 359,323 360,330 360,337 362,329 362,330 364,319 365,317 367,311 367,313 368,350 369,344 371,350 372,356 373,348 374,349 375,345 377,347 377,350 378,348 380,360 381,357 381,354 383,357 384,360 385,357 386,344 387,345 389,329 390,324 391,315 392,313 392,317 394,309 394,314 396,310 397,322 399,320 399,311 401,310 402,314 403,310 403,314 405,313 406,322 407,321 409,299 409,299 410,303 412,307 413,302 414,304 415,301 416,303 417,290 418,291 420,302 421,299 422,296 424,299 424,293 424,296 426,302 427,299 428,301 429,306 430,303 432,299 433,304 434,304 435,320 436,327 437,332 438,325 439,302 441,307 442,300 444,302 444,298 444,298 446,287 447,285 449,292 449,296 449,302 451,298 453,303 454,304 455,301 455,303 457,317 459,317 460,314 461,312 462,319 462,318 463,317 464,317 465,323 467,321 468,319 469,321 471,312 471,311 471,306 473,308 474,311 475,309 477,299 478,294 479,284 480,285 481,269 482,265 484,245 486,232 486,247 487,238 487,250 489,246 491,236 491,229 493,202 493,199 495,209 495,204 497,180 498,177 499,167 500,175 501,189 502,189 504,177 505,187 505,177 507,184 507,195 509,186 511,178 511,181 512,158 513,153 515,119 517,125 517,135 518,126 519,83 520,84 521,64 522,64 524,70 524,65 525,114 526,97 528,76 529,75 530,99 531,91 533,120 533,126 534,139 536,116 537,128 538,124 539,136 540,124 541,134 543,134 544,115 544,121 545,95 547,101 548,106 549,106 550,91 551,105 553,136 553,133 555,120 556,128 557,110 558,114 559,140 560,125 560,140 562,116 564,95 564,92 566,102 567,94 568,133 569,162 570,136 571,142 571,154 573,141 575,124 575,121 577,147 579,145 579,161 580,162 581,149 582,154 584,130 584,125 585,117 587,127 588,150 590,148 590,140 591,136 593,104 593,106 594,64 595,64 597,84 597,76 598,64 600,64 601,83 602,64 603,68 605,75 605,64 607,64 608,79 608,64 609,91 612,84 612,107 613,103 614,84 615,87 617,67 618,68 619,102 620,99 621,82 623,68 624,79 624,70 626,107 626,123 627,145 629,120 630,132 631,126 632,144 633,163 634,123 635,111 637,161 637,161 639,182 640,175 641,160 642,157 643,167 645,171 645,185 646,179 647,198 648,181 650,164 651,165 652,150 653,151 654,156 655,157 657,109 657,105 657,117 660,117 661,101 662,111 663,125 664,132 665,124 667,117 668,130 668,131 670,119 670,134 672,112 674,116 674,104 675,107 676,72 677,73 677,64 680,64 681,82 682,76 683,99 684,104 686,71 686,64 688,86 690,89 690,64 691,65 691,86 693,88 694,76 695,76 695,64 697,64 698,86 699,81 701,112 701,103 703,64 704,69 705,116 706,95 708,120 708,114 709,122 710,119 712,134 712,129 714,159 715,152 717,180 717,181 719,206 719,206 720,193 722,208 723,188 724,195 725,183 726,193 727,209 728,202 730,212 730,211 732,192 733,192 734,200 735,211 736,195 737,200 738,213 739,213 741,234 741,245 743,279 744,267 745,275 746,266 747,273 748,265 749,276 751,266 752,273 753,273 754,261 756,257 756,265 757,265 759,275 759,276 760,266 761,271 762,263 764,271 765,261 767,263 768,267 768,265 769,270 770,267 771,260 773,262 774,271 775,277 776,271 777,275 779,285 779,284 781,313 781,314 783,303 784,301 785,308 786,306 787,313 788,310 790,298 790,299" fill="none" stroke="#f87171" stroke-width="2"/>
<text x="723" y="46" font-size="12" fill="#e2e8f0">Buy &amp; Hold</text>
<rect x="707" y="36" width="12" height="12" rx="2" fill="#f87171"/>
<text x="600" y="46" font-size="12" fill="#e2e8f0">Worst-Case (E)</text>
<rect x="584" y="36" width="12" height="12" rx="2" fill="#fbbf24"/>
<text x="490" y="46" font-size="12" fill="#e2e8f0">Baseline (A)</text>
<rect x="474" y="36" width="12" height="12" rx="2" fill="#34d399"/>
</svg>