<svg xmlns="http://www.w3.org/2000/svg" width="820" height="436" viewBox="0 0 820 436" font-family="Plus Jakarta Sans,Segoe UI,Arial,sans-serif">
<rect width="820" height="436" fill="#050a18"/>
<text x="20" y="24" font-size="18" font-weight="700" fill="#e2e8f0">Where the Damage Lands (Test 2)</text>
<text x="20" y="42" font-size="12" fill="#7a8ba5">Cumulative equity gap vs baseline. Shading = vol-spike share.</text>
<rect x="72.2" y="80" width="2.7" height="296" fill="#f87171" fill-opacity="0.16"/>
<rect x="114.3" y="80" width="2.7" height="296" fill="#f87171" fill-opacity="0.31"/>
<rect x="116.5" y="80" width="2.7" height="296" fill="#f87171" fill-opacity="0.55"/>
<rect x="118.7" y="80" width="2.7" height="296" fill="#f87171" fill-opacity="0.16"/>
<rect x="121.0" y="80" width="2.7" height="296" fill="#f87171" fill-opacity="0.16"/>
<rect x="123.2" y="80" width="2.7" height="296" fill="#f87171" fill-opacity="0.16"/>
<rect x="136.5" y="80" width="2.7" height="296" fill="#f87171" fill-opacity="0.55"/>
<rect x="140.9" y="80" width="2.7" height="296" fill="#f87171" fill-opacity="0.55"/>
<rect x="143.1" y="80" width="2.7" height="296" fill="#f87171" fill-opacity="0.55"/>
<rect x="149.8" y="80" width="2.7" height="296" fill="#f87171" fill-opacity="0.47"/>
<rect x="152.0" y="80" width="2.7" height="296" fill="#f87171" fill-opacity="0.55"/>
<rect x="154.2" y="80" width="2.7" height="296" fill="#f87171" fill-opacity="0.31"/>
<rect x="156.4" y="80" width="2.7" height="296" fill="#f87171" fill-opacity="0.55"/>
<rect x="158.6" y="80" width="2.7" height="296" fill="#f87171" fill-opacity="0.55"/>
<rect x="160.8" y="80" width="2.7" height="296" fill="#f87171" fill-opacity="0.55"/>
<rect x="163.0" y="80" width="2.7" height="296" fill="#f87171" fill-opacity="0.55"/>
<rect x="165.3" y="80" width="2.7" height="296" fill="#f87171" fill-opacity="0.31"/>
<rect x="167.5" y="80" width="2.7" height="296" fill="#f87171" fill-opacity="0.55"/>
<rect x="169.7" y="80" width="2.7" height="296" fill="#f87171" fill-opacity="0.55"/>
<rect x="171.9" y="80" width="2.7" height="296" fill="#f87171" fill-opacity="0.55"/>
<rect x="174.1" y="80" width="2.7" height="296" fill="#f87171" fill-opacity="0.16"/>
<rect x="176.3" y="80" width="2.7" height="296" fill="#f87171" fill-opacity="0.31"/>
<rect x="183.0" y="80" width="2.7" height="296" fill="#f87171" fill-opacity="0.16"/>
<rect x="191.8" y="80" width="2.7" height="296" fill="#f87171" fill-opacity="0.47"/>
<rect x="194.1" y="80" width="2.7" height="296" fill="#f87171" fill-opacity="0.47"/>
<rect x="196.3" y="80" width="2.7" height="296" fill="#f87171" fill-opacity="0.55"/>
<rect x="198.5" y="80" width="2.7" height="296" fill="#f87171" fill-opacity="0.55"/>
<rect x="200.7" y="80" width="2.7" height="296" fill="#f87171" fill-opacity="0.55"/>
<rect x="202.9" y="80" width="2.7" height="296" fill="#f87171" fill-opacity="0.55"/>
<rect x="207.4" y="80" width="2.7" height="296" fill="#f87171" fill-opacity="0.55"/>
<rect x="209.6" y="80" width="2.7" height="296" fill="#f87171" fill-opacity="0.55"/>
<rect x="216.2" y="80" width="2.7" height="296" fill="#f87171" fill-opacity="0.31"/>
<rect x="231.7" y="80" width="2.7" height="296" fill="#f87171" fill-opacity="0.16"/>
<rect x="236.2" y="80" width="2.7" height="296" fill="#f87171" fill-opacity="0.47"/>
<rect x="238.4" y="80" width="2.7" height="296" fill="#f87171" fill-opacity="0.55"/>
<rect x="256.1" y="80" width="2.7" height="296" fill="#f87171" fill-opacity="0.16"/>
<rect x="276.0" y="80" width="2.7" height="296" fill="#f87171" fill-opacity="0.55"/>
<rect x="287.1" y="80" width="2.7" height="296" fill="#f87171" fill-opacity="0.31"/>
<rect x="289.3" y="80" width="2.7" height="296" fill="#f87171" fill-opacity="0.31"/>
<rect x="309.3" y="80" width="2.7" height="296" fill="#f87171" fill-opacity="0.55"/>
<rect x="311.5" y="80" width="2.7" height="296" fill="#f87171" fill-opacity="0.55"/>
<rect x="313.7" y="80" width="2.7" height="296" fill="#f87171" fill-opacity="0.16"/>
<rect x="315.9" y="80" width="2.7" height="296" fill="#f87171" fill-opacity="0.55"/>
<rect x="318.1" y="80" width="2.7" height="296" fill="#f87171" fill-opacity="0.16"/>
<rect x="320.3" y="80" width="2.7" height="296" fill="#f87171" fill-opacity="0.55"/>
<rect x="322.6" y="80" width="2.7" height="296" fill="#f87171" fill-opacity="0.55"/>
<rect x="366.9" y="80" width="2.7" height="296" fill="#f87171" fill-opacity="0.55"/>
<rect x="369.1" y="80" width="2.7" height="296" fill="#f87171" fill-opacity="0.55"/>
<rect x="444.4" y="80" width="2.7" height="296" fill="#f87171" fill-opacity="0.47"/>
<rect x="446.6" y="80" width="2.7" height="296" fill="#f87171" fill-opacity="0.55"/>
<rect x="524.2" y="80" width="2.7" height="296" fill="#f87171" fill-opacity="0.55"/>
<rect x="526.4" y="80" width="2.7" height="296" fill="#f87171" fill-opacity="0.31"/>
<rect x="533.0" y="80" width="2.7" height="296" fill="#f87171" fill-opacity="0.16"/>
<rect x="568.5" y="80" width="2.7" height="296" fill="#f87171" fill-opacity="0.47"/>
<rect x="570.7" y="80" width="2.7" height="296" fill="#f87171" fill-opacity="0.16"/>
<rect x="634.9" y="80" width="2.7" height="296" fill="#f87171" fill-opacity="0.55"/>
<rect x="637.1" y="80" width="2.7" height="296" fill="#f87171" fill-opacity="0.16"/>
<rect x="646.0" y="80" width="2.7" height="296" fill="#f87171" fill-opacity="0.55"/>
<rect x="648.2" y="80" width="2.7" height="296" fill="#f87171" fill-opacity="0.47"/>
<rect x="690.3" y="80" width="2.7" height="296" fill="#f87171" fill-opacity="0.31"/>
<rect x="703.6" y="80" width="2.7" height="296" fill="#f87171" fill-opacity="0.31"/>
<rect x="705.8" y="80" width="2.7" height="296" fill="#f87171" fill-opacity="0.55"/>
<rect x="741.3" y="80" width="2.7" height="296" fill="#f87171" fill-opacity="0.47"/>
<rect x="743.5" y="80" width="2.7" height="296" fill="#f87171" fill-opacity="0.55"/>
<line x1="70" y1="376.0" x2="790" y2="376.0" stroke="#18223a" stroke-width="1"/>
<text x="64" y="379.0" font-size="10" fill="#7a8ba5" text-anchor="end">$0</text>
<line x1="70" y1="302.0" x2="790" y2="302.0" stroke="#18223a" stroke-width="1"/>
<text x="64" y="305.0" font-size="10" fill="#7a8ba5" text-anchor="end">$11,864</text>
<line x1="70" y1="228.0" x2="790" y2="228.0" stroke="#18223a" stroke-width="1"/>
<text x="64" y="231.0" font-size="10" fill="#7a8ba5" text-anchor="end">$23,727</text>
<line x1="70" y1="154.0" x2="790" y2="154.0" stroke="#18223a" stroke-width="1"/>
<text x="64" y="157.0" font-size="10" fill="#7a8ba5" text-anchor="end">$35,591</text>
<line x1="70" y1="80.0" x2="790" y2="80.0" stroke="#18223a" stroke-width="1"/>
<text x="64" y="83.0" font-size="10" fill="#7a8ba5" text-anchor="end">$47,454</text>
<text x="70.0" y="396" font-size="10" fill="#7a8ba5" text-anchor="middle">2020-04</text>
<text x="250.0" y="396" font-size="10" fill="#7a8ba5" text-anchor="middle">2021-10</text>
<text x="430.0" y="396" font-size="10" fill="#7a8ba5" text-anchor="middle">2023-05</text>
<text x="610.0" y="396" font-size="10" fill="#7a8ba5" text-anchor="middle">2024-12</text>
<text x="790.0" y="396" font-size="10" fill="#7a8ba5" text-anchor="middle">2026-06</text>
<polyline points="70.0,376.0 72.2,376.0 74.4,375.9 76.7,375.9 78.9,375.9 81.1,375.8 83.3,375.8 85.6,375.7 87.8,375.7 90.0,375.7 92.2,375.7 94.4,375.7 96.7,375.7 98.9,375.6 101.1,375.6 103.3,375.5 105.6,375.5 107.8,375.4 110.0,375.4 112.2,375.3 114.4,375.2 116.7,374.6 118.9,374.6 121.1,374.5 123.3,374.5 125.6,374.5 127.8,374.5 130.0,374.5 132.2,374.5 134.4,374.4 136.7,374.4 138.9,374.3 141.1,373.7 143.3,373.6 145.6,373.4 147.8,373.4 150.0,373.2 152.2,373.1 154.4,372.2 156.7,372.0 158.9,371.9 161.1,371.8 163.3,371.2 165.6,370.4 167.8,370.3 170.0,369.6 172.2,368.9 174.4,368.7 176.7,368.4 178.9,368.1 181.1,367.7 183.3,366.7 185.6,366.3 187.8,365.5 190.0,364.9 192.2,363.8 194.4,363.1 196.7,359.4 198.9,355.1 201.1,354.6 203.3,354.3 205.6,354.1 207.8,353.6 210.0,353.4 212.2,353.1 214.4,353.0 216.7,352.7 218.9,352.5 221.1,352.1 223.3,351.5 225.6,349.6 227.8,347.9 230.0,346.3 232.2,344.2 234.4,343.6 236.7,342.6 238.9,342.3 241.1,342.2 243.3,341.5 245.6,341.2 247.8,339.7 250.0,338.4 252.2,337.5 254.4,336.3 256.7,335.6 258.9,334.9 261.1,334.4 263.3,334.0 265.6,333.7 267.8,333.5 270.0,333.4 272.2,333.1 274.4,333.0 276.7,332.8 278.9,331.7 281.1,331.1 283.3,330.8 285.6,330.5 287.8,330.3 290.0,330.1 292.2,330.0 294.4,329.8 296.7,329.1 298.9,328.9 301.1,328.6 303.3,328.1 305.6,328.1 307.8,327.9 310.0,327.6 312.2,327.3 314.4,327.1 316.7,326.7 318.9,326.5 321.1,325.4 323.3,325.2 325.6,325.2 327.8,325.1 330.0,324.2 332.2,323.5 334.4,323.2 336.7,323.1 338.9,322.8 341.1,322.8 343.3,322.6 345.6,322.4 347.8,321.6 350.0,321.1 352.2,320.3 354.4,320.1 356.7,319.8 358.9,319.7 361.1,319.5 363.3,319.3 365.6,319.1 367.8,317.9 370.0,317.5 372.2,317.3 374.4,317.2 376.7,316.9 378.9,316.8 381.1,316.6 383.3,316.5 385.6,316.1 387.8,315.3 390.0,315.1 392.2,314.9 394.4,314.7 396.7,314.4 398.9,314.2 401.1,314.1 403.3,313.9 405.6,313.8 407.8,313.6 410.0,313.3 412.2,313.1 414.4,313.0 416.7,313.0 418.9,312.7 421.1,312.6 423.3,312.4 425.6,312.3 427.8,312.3 430.0,312.1 432.2,312.0 434.4,311.7 436.7,311.5 438.9,311.1 441.1,310.4 443.3,310.2 445.6,309.9 447.8,309.8 450.0,309.7 452.2,309.6 454.4,309.5 456.7,309.3 458.9,309.1 461.1,309.0 463.3,308.9 465.6,308.8 467.8,308.7 470.0,308.7 472.2,308.5 474.4,308.4 476.7,308.3 478.9,308.3 481.1,308.3 483.3,308.2 485.6,307.9 487.8,307.6 490.0,307.5 492.2,307.5 494.4,307.2 496.7,307.0 498.9,306.8 501.1,306.3 503.3,305.9 505.6,305.7 507.8,305.5 510.0,305.3 512.2,305.2 514.4,305.0 516.7,304.9 518.9,304.9 521.1,304.5 523.3,304.0 525.6,303.2 527.8,302.7 530.0,302.3 532.2,302.0 534.4,301.4 536.7,301.2 538.9,301.0 541.1,300.9 543.3,300.8 545.6,300.6 547.8,300.5 550.0,300.4 552.2,300.1 554.4,300.0 556.7,299.9 558.9,299.5 561.1,299.2 563.3,298.7 565.6,298.4 567.8,298.3 570.0,297.9 572.2,297.4 574.4,297.4 576.7,297.2 578.9,296.8 581.1,296.7 583.3,296.5 585.6,296.3 587.8,296.2 590.0,296.1 592.2,295.9 594.4,295.7 596.7,295.6 598.9,295.4 601.1,295.2 603.3,290.2 605.6,287.9 607.8,285.4 610.0,285.1 612.2,283.9 614.4,283.2 616.7,282.7 618.9,282.3 621.1,279.5 623.3,278.7 625.6,278.4 627.8,276.0 630.0,275.8 632.2,275.6 634.4,275.3 636.7,273.4 638.9,273.1 641.1,272.7 643.3,272.5 645.6,272.1 647.8,271.0 650.0,270.6 652.2,269.9 654.4,269.5 656.7,268.4 658.9,268.1 661.1,267.7 663.3,267.5 665.6,267.3 667.8,266.9 670.0,266.7 672.2,266.1 674.4,265.7 676.7,264.9 678.9,263.8 681.1,261.8 683.3,261.1 685.6,260.1 687.8,257.5 690.0,255.1 692.2,253.8 694.4,253.6 696.7,251.3 698.9,250.6 701.1,249.5 703.3,248.6 705.6,247.1 707.8,245.5 710.0,245.2 712.2,245.0 714.4,244.6 716.7,244.3 718.9,244.1 721.1,243.4 723.3,242.7 725.6,242.5 727.8,242.2 730.0,242.1 732.2,241.0 734.4,240.6 736.7,240.4 738.9,240.2 741.1,239.9 743.3,239.0 745.6,238.9 747.8,238.4 750.0,237.6 752.2,236.9 754.4,236.7 756.7,236.6 758.9,236.3 761.1,236.1 763.3,235.8 765.6,235.4 767.8,235.3 770.0,235.2 772.2,234.9 774.4,234.7 776.7,234.6 778.9,234.5 781.1,234.5 783.3,233.7 785.6,233.4 787.8,233.3 790.0,232.3" fill="none" stroke="#60a5fa" stroke-width="2"/>
<polyline points="70.0,376.0 72.2,375.9 74.4,375.9 76.7,375.8 78.9,375.7 81.1,375.7 83.3,375.7 85.6,375.6 87.8,375.5 90.0,375.5 92.2,375.5 94.4,375.5 96.7,375.5 98.9,375.5 101.1,375.4 103.3,375.1 105.6,375.0 107.8,374.9 110.0,374.9 112.2,374.7 114.4,374.6 116.7,373.8 118.9,373.8 121.1,373.7 123.3,373.7 125.6,373.6 127.8,373.6 130.0,373.6 132.2,373.5 134.4,373.5 136.7,373.4 138.9,373.2 141.1,372.0 143.3,371.8 145.6,371.4 147.8,371.3 150.0,371.3 152.2,371.2 154.4,369.3 156.7,369.0 158.9,368.8 161.1,368.5 163.3,367.3 165.6,365.7 167.8,365.6 170.0,364.4 172.2,363.3 174.4,362.8 176.7,362.4 178.9,362.2 181.1,361.5 183.3,359.7 185.6,358.8 187.8,358.0 190.0,356.7 192.2,354.0 194.4,353.1 196.7,349.5 198.9,340.4 201.1,339.8 203.3,339.8 205.6,339.8 207.8,339.7 210.0,339.6 212.2,339.5 214.4,339.5 216.7,339.1 218.9,338.9 221.1,338.3 223.3,337.4 225.6,332.3 227.8,327.9 230.0,324.0 232.2,321.0 234.4,320.0 236.7,318.5 238.9,317.9 241.1,317.8 243.3,316.7 245.6,315.5 247.8,312.0 250.0,309.2 252.2,306.7 254.4,306.1 256.7,304.3 258.9,303.7 261.1,303.1 263.3,302.6 265.6,302.2 267.8,302.0 270.0,301.8 272.2,301.3 274.4,301.2 276.7,300.9 278.9,300.2 281.1,299.8 283.3,299.4 285.6,299.1 287.8,298.6 290.0,298.2 292.2,297.9 294.4,297.4 296.7,295.8 298.9,295.4 301.1,294.8 303.3,294.3 305.6,294.1 307.8,293.6 310.0,293.2 312.2,292.5 314.4,292.4 316.7,292.2 318.9,292.1 321.1,291.0 323.3,290.9 325.6,290.9 327.8,290.7 330.0,289.6 332.2,288.8 334.4,288.0 336.7,287.8 338.9,287.1 341.1,287.1 343.3,286.8 345.6,286.5 347.8,285.8 350.0,285.3 352.2,284.7 354.4,284.5 356.7,284.2 358.9,284.1 361.1,283.9 363.3,283.0 365.6,282.4 367.8,281.1 370.0,280.5 372.2,280.3 374.4,280.3 376.7,279.6 378.9,279.4 381.1,279.2 383.3,279.1 385.6,278.5 387.8,277.0 390.0,276.3 392.2,275.9 394.4,275.4 396.7,275.0 398.9,274.2 401.1,274.1 403.3,273.9 405.6,273.8 407.8,272.7 410.0,271.9 412.2,271.3 414.4,271.2 416.7,270.5 418.9,270.1 421.1,269.8 423.3,269.6 425.6,269.5 427.8,269.3 430.0,269.0 432.2,268.6 434.4,268.3 436.7,268.1 438.9,267.7 441.1,267.1 443.3,266.8 445.6,265.2 447.8,265.1 450.0,264.8 452.2,264.8 454.4,264.6 456.7,264.4 458.9,264.2 461.1,263.9 463.3,263.8 465.6,263.5 467.8,263.3 470.0,263.0 472.2,262.6 474.4,262.5 476.7,261.8 478.9,261.3 481.1,260.6 483.3,259.6 485.6,259.1 487.8,258.5 490.0,258.1 492.2,257.2 494.4,256.7 496.7,255.7 498.9,255.2 501.1,254.8 503.3,253.8 505.6,253.6 507.8,253.3 510.0,252.9 512.2,252.3 514.4,251.6 516.7,251.3 518.9,250.2 521.1,249.1 523.3,248.2 525.6,247.2 527.8,246.5 530.0,246.3 532.2,246.0 534.4,244.8 536.7,244.6 538.9,244.3 541.1,243.8 543.3,243.0 545.6,242.3 547.8,242.1 550.0,241.7 552.2,241.3 554.4,241.2 556.7,240.8 558.9,240.1 561.1,239.1 563.3,238.2 565.6,237.8 567.8,237.8 570.0,236.6 572.2,236.1 574.4,235.6 576.7,235.5 578.9,235.1 581.1,234.4 583.3,233.8 585.6,233.1 587.8,232.9 590.0,232.5 592.2,232.0 594.4,231.6 596.7,231.2 598.9,229.5 601.1,227.4 603.3,215.1 605.6,209.2 607.8,201.6 610.0,201.5 612.2,199.5 614.4,197.8 616.7,196.6 618.9,195.5 621.1,191.1 623.3,188.8 625.6,188.6 627.8,185.8 630.0,185.4 632.2,184.9 634.4,184.8 636.7,181.1 638.9,180.9 641.1,180.2 643.3,180.1 645.6,179.4 647.8,178.1 650.0,177.9 652.2,177.3 654.4,176.8 656.7,174.6 658.9,174.1 661.1,173.2 663.3,173.0 665.6,172.5 667.8,171.7 670.0,171.5 672.2,170.4 674.4,169.6 676.7,168.0 678.9,166.1 681.1,160.2 683.3,159.3 685.6,157.0 687.8,150.4 690.0,145.5 692.2,142.0 694.4,141.5 696.7,137.0 698.9,134.3 701.1,133.6 703.3,131.9 705.6,128.6 707.8,125.5 710.0,125.2 712.2,125.0 714.4,123.7 716.7,123.3 718.9,123.1 721.1,122.4 723.3,121.6 725.6,121.2 727.8,120.8 730.0,120.6 732.2,119.3 734.4,118.5 736.7,117.9 738.9,117.6 741.1,117.1 743.3,113.9 745.6,113.8 747.8,113.8 750.0,113.5 752.2,112.0 754.4,111.6 756.7,111.1 758.9,110.8 761.1,110.1 763.3,109.4 765.6,108.4 767.8,108.1 770.0,107.8 772.2,107.2 774.4,106.8 776.7,106.5 778.9,106.2 781.1,106.2 783.3,105.3 785.6,104.8 787.8,104.7 790.0,101.9" fill="none" stroke="#f87171" stroke-width="2"/>
<polyline points="70.0,376.0 72.2,376.0 74.4,376.0 76.7,376.0 78.9,376.0 81.1,375.9 83.3,375.9 85.6,375.9 87.8,375.9 90.0,375.9 92.2,375.9 94.4,375.9 96.7,375.8 98.9,375.8 101.1,375.8 103.3,375.8 105.6,375.7 107.8,375.7 110.0,375.7 112.2,375.7 114.4,375.6 116.7,375.6 118.9,375.5 121.1,375.5 123.3,375.5 125.6,375.5 127.8,375.4 130.0,375.4 132.2,375.4 134.4,375.3 136.7,375.3 138.9,375.3 141.1,375.2 143.3,375.1 145.6,375.0 147.8,375.0 150.0,374.9 152.2,374.8 154.4,374.7 156.7,374.6 158.9,374.4 161.1,374.3 163.3,373.9 165.6,373.4 167.8,373.2 170.0,372.5 172.2,371.9 174.4,371.7 176.7,371.3 178.9,371.1 181.1,370.8 183.3,369.9 185.6,369.4 187.8,369.0 190.0,368.4 192.2,367.2 194.4,366.3 196.7,364.8 198.9,363.7 201.1,363.6 203.3,363.6 205.6,363.5 207.8,363.5 210.0,363.4 212.2,363.4 214.4,363.3 216.7,363.1 218.9,363.1 221.1,362.8 223.3,362.3 225.6,361.0 227.8,360.1 230.0,359.8 232.2,358.8 234.4,358.5 236.7,357.8 238.9,357.5 241.1,357.4 243.3,356.8 245.6,356.6 247.8,355.7 250.0,355.0 252.2,354.6 254.4,353.8 256.7,353.1 258.9,352.8 261.1,352.7 263.3,352.5 265.6,352.4 267.8,352.3 270.0,352.1 272.2,351.9 274.4,351.8 276.7,351.6 278.9,351.2 281.1,351.0 283.3,350.8 285.6,350.6 287.8,350.4 290.0,350.3 292.2,350.2 294.4,350.1 296.7,349.6 298.9,349.4 301.1,349.1 303.3,348.6 305.6,348.5 307.8,348.3 310.0,347.2 312.2,346.8 314.4,346.5 316.7,345.9 318.9,345.4 321.1,344.2 323.3,344.1 325.6,343.9 327.8,343.8 330.0,343.0 332.2,342.5 334.4,342.3 336.7,342.3 338.9,342.2 341.1,342.1 343.3,341.9 345.6,341.8 347.8,341.0 350.0,340.6 352.2,339.8 354.4,339.6 356.7,339.3 358.9,339.3 361.1,339.1 363.3,339.0 365.6,338.9 367.8,337.9 370.0,337.7 372.2,337.4 374.4,337.3 376.7,337.1 378.9,337.0 381.1,336.9 383.3,336.8 385.6,336.6 387.8,336.2 390.0,335.9 392.2,335.8 394.4,335.6 396.7,335.4 398.9,335.2 401.1,335.0 403.3,334.9 405.6,334.8 407.8,334.6 410.0,334.3 412.2,334.1 414.4,334.1 416.7,334.1 418.9,333.8 421.1,333.7 423.3,333.6 425.6,333.4 427.8,333.4 430.0,333.3 432.2,333.2 434.4,332.9 436.7,332.8 438.9,332.6 441.1,332.3 443.3,332.2 445.6,331.9 447.8,331.7 450.0,331.7 452.2,331.6 454.4,331.5 456.7,331.4 458.9,331.3 461.1,331.1 463.3,331.1 465.6,331.0 467.8,330.9 470.0,330.9 472.2,330.7 474.4,330.7 476.7,330.6 478.9,330.5 481.1,330.5 483.3,330.4 485.6,330.2 487.8,330.0 490.0,329.9 492.2,329.8 494.4,329.6 496.7,329.4 498.9,329.3 501.1,329.0 503.3,328.7 505.6,328.5 507.8,328.4 510.0,328.2 512.2,328.1 514.4,328.0 516.7,327.9 518.9,327.9 521.1,327.6 523.3,327.2 525.6,326.8 527.8,326.4 530.0,326.1 532.2,325.9 534.4,325.4 536.7,325.3 538.9,325.2 541.1,325.1 543.3,324.9 545.6,324.7 547.8,324.6 550.0,324.4 552.2,324.2 554.4,324.1 556.7,324.0 558.9,323.7 561.1,323.3 563.3,323.0 565.6,322.8 567.8,322.8 570.0,322.3 572.2,321.9 574.4,321.8 576.7,321.7 578.9,321.4 581.1,321.2 583.3,321.0 585.6,320.8 587.8,320.7 590.0,320.5 592.2,320.4 594.4,320.2 596.7,320.1 598.9,319.8 601.1,319.7 603.3,317.4 605.6,315.3 607.8,313.0 610.0,312.2 612.2,311.5 614.4,311.1 616.7,310.9 618.9,310.2 621.1,308.4 623.3,308.0 625.6,307.5 627.8,306.8 630.0,306.7 632.2,306.4 634.4,306.3 636.7,305.3 638.9,305.1 641.1,305.1 643.3,305.1 645.6,304.7 647.8,304.1 650.0,303.9 652.2,303.6 654.4,303.3 656.7,302.6 658.9,302.3 661.1,302.0 663.3,301.9 665.6,301.7 667.8,301.4 670.0,301.2 672.2,300.9 674.4,300.6 676.7,300.1 678.9,299.4 681.1,298.0 683.3,297.2 685.6,296.3 687.8,295.1 690.0,292.9 692.2,291.6 694.4,291.4 696.7,290.2 698.9,289.4 701.1,288.4 703.3,287.8 705.6,286.9 707.8,285.8 710.0,285.4 712.2,285.2 714.4,284.8 716.7,284.5 718.9,284.4 721.1,284.0 723.3,283.6 725.6,283.4 727.8,283.2 730.0,283.1 732.2,282.6 734.4,282.4 736.7,282.2 738.9,282.0 741.1,281.8 743.3,280.9 745.6,280.9 747.8,280.6 750.0,280.1 752.2,279.7 754.4,279.5 756.7,279.4 758.9,279.1 761.1,278.8 763.3,278.4 765.6,277.9 767.8,277.8 770.0,277.6 772.2,277.4 774.4,277.1 776.7,276.9 778.9,276.7 781.1,276.7 783.3,275.9 785.6,275.7 787.8,275.6 790.0,274.9" fill="none" stroke="#fbbf24" stroke-width="2"/>
<polyline points="70.0,376.0 72.2,376.0 74.4,376.0 76.7,376.0 78.9,376.0 81.1,376.0 83.3,376.0 85.6,376.0 87.8,376.0 90.0,376.0 92.2,376.0 94.4,376.0 96.7,376.0 98.9,376.0 101.1,376.0 103.3,376.0 105.6,376.0 107.8,376.0 110.0,376.0 112.2,376.0 114.4,376.0 116.7,375.1 118.9,375.0 121.1,375.0 123.3,375.0 125.6,375.0 127.8,375.0 130.0,375.0 132.2,375.0 134.4,375.0 136.7,374.9 138.9,374.9 141.1,374.0 143.3,373.8 145.6,373.8 147.8,373.8 150.0,373.7 152.2,373.6 154.4,373.4 156.7,373.3 158.9,373.3 161.1,373.0 163.3,372.4 165.6,371.8 167.8,371.7 170.0,371.2 172.2,369.7 174.4,369.6 176.7,369.5 178.9,369.4 181.1,369.4 183.3,369.3 185.6,369.1 187.8,368.9 190.0,368.9 192.2,368.6 194.4,368.2 196.7,363.5 198.9,353.0 201.1,352.5 203.3,352.5 205.6,352.4 207.8,352.4 210.0,352.4 212.2,352.3 214.4,352.3 216.7,352.2 218.9,352.1 221.1,352.0 223.3,351.6 225.6,351.0 227.8,350.1 230.0,349.1 232.2,348.6 234.4,348.3 236.7,348.1 238.9,347.6 241.1,347.6 243.3,347.4 245.6,347.2 247.8,346.5 250.0,345.9 252.2,345.3 254.4,344.9 256.7,344.6 258.9,344.4 261.1,344.4 263.3,344.3 265.6,344.1 267.8,344.1 270.0,344.0 272.2,343.9 274.4,343.9 276.7,343.8 278.9,343.6 281.1,343.5 283.3,343.4 285.6,343.3 287.8,343.2 290.0,343.1 292.2,343.0 294.4,342.9 296.7,342.6 298.9,342.5 301.1,342.4 303.3,342.3 305.6,342.3 307.8,342.1 310.0,342.0 312.2,341.3 314.4,341.2 316.7,341.2 318.9,341.2 321.1,340.5 323.3,340.5 325.6,340.5 327.8,340.5 330.0,340.3 332.2,340.1 334.4,339.9 336.7,339.8 338.9,339.7 341.1,339.7 343.3,339.6 345.6,339.5 347.8,339.4 350.0,339.3 352.2,339.1 354.4,339.0 356.7,339.0 358.9,339.0 361.1,338.9 363.3,338.7 365.6,338.5 367.8,337.7 370.0,336.8 372.2,336.4 374.4,336.2 376.7,335.9 378.9,335.2 381.1,334.9 383.3,334.9 385.6,334.4 387.8,333.1 390.0,332.6 392.2,332.3 394.4,332.0 396.7,331.3 398.9,330.9 401.1,330.5 403.3,330.1 405.6,329.7 407.8,329.4 410.0,328.8 412.2,328.5 414.4,328.3 416.7,328.3 418.9,327.4 421.1,327.2 423.3,326.8 425.6,326.4 427.8,326.4 430.0,326.1 432.2,325.9 434.4,324.7 436.7,324.5 438.9,324.1 441.1,323.6 443.3,323.4 445.6,323.0 447.8,322.6 450.0,322.5 452.2,322.1 454.4,322.0 456.7,321.3 458.9,321.0 461.1,320.7 463.3,320.6 465.6,320.4 467.8,320.2 470.0,320.1 472.2,319.9 474.4,319.6 476.7,319.5 478.9,319.4 481.1,319.4 483.3,319.3 485.6,318.7 487.8,318.3 490.0,318.0 492.2,318.0 494.4,317.4 496.7,317.2 498.9,316.8 501.1,315.9 503.3,315.2 505.6,314.7 507.8,314.1 510.0,313.8 512.2,313.7 514.4,313.5 516.7,313.2 518.9,313.2 521.1,312.7 523.3,311.9 525.6,310.5 527.8,310.3 530.0,310.0 532.2,309.2 534.4,308.7 536.7,308.4 538.9,308.0 541.1,307.9 543.3,307.7 545.6,307.5 547.8,307.3 550.0,307.1 552.2,306.6 554.4,306.4 556.7,306.2 558.9,305.6 561.1,305.4 563.3,304.9 565.6,304.3 567.8,303.8 570.0,303.1 572.2,302.9 574.4,302.9 576.7,302.9 578.9,302.9 581.1,302.9 583.3,302.8 585.6,302.8 587.8,302.8 590.0,302.8 592.2,302.8 594.4,302.8 596.7,302.8 598.9,302.7 601.1,302.6 603.3,302.5 605.6,302.4 607.8,302.2 610.0,302.2 612.2,302.1 614.4,302.1 616.7,302.1 618.9,302.1 621.1,302.0 623.3,302.0 625.6,301.9 627.8,301.9 630.0,301.9 632.2,301.9 634.4,301.9 636.7,300.2 638.9,300.1 641.1,300.1 643.3,300.1 645.6,300.1 647.8,300.0 650.0,300.0 652.2,300.0 654.4,299.9 656.7,299.8 658.9,299.7 661.1,299.7 663.3,299.7 665.6,299.6 667.8,299.6 670.0,299.6 672.2,299.5 674.4,299.4 676.7,299.3 678.9,299.2 681.1,299.0 683.3,299.0 685.6,298.7 687.8,298.5 690.0,298.2 692.2,297.2 694.4,297.0 696.7,296.7 698.9,296.5 701.1,296.4 703.3,296.1 705.6,296.0 707.8,290.0 710.0,289.9 712.2,289.9 714.4,289.9 716.7,289.8 718.9,289.8 721.1,289.8 723.3,289.7 725.6,289.6 727.8,289.6 730.0,289.6 732.2,289.5 734.4,289.5 736.7,289.4 738.9,289.4 741.1,289.3 743.3,289.3 745.6,289.0 747.8,289.0 750.0,288.9 752.2,288.9 754.4,288.8 756.7,288.8 758.9,288.8 761.1,288.7 763.3,288.6 765.6,288.6 767.8,288.5 770.0,288.5 772.2,288.5 774.4,288.4 776.7,288.4 778.9,288.4 781.1,288.4 783.3,288.3 785.6,288.3 787.8,288.3 790.0,288.2" fill="none" stroke="#a78bfa" stroke-width="2"/>
<text x="697" y="62" font-size="12" fill="#e2e8f0">W: Worst weeks</text>
<rect x="681" y="52" width="12" height="12" rx="2" fill="#a78bfa"/>
<text x="607" y="62" font-size="12" fill="#e2e8f0">M: Asleep</text>
<rect x="591" y="52" width="12" height="12" rx="2" fill="#fbbf24"/>
<text x="517" y="62" font-size="12" fill="#e2e8f0">L: Lag 3d</text>
<rect x="501" y="52" width="12" height="12" rx="2" fill="#f87171"/>
<text x="394" y="62" font-size="12" fill="#e2e8f0">N: Random 0-3d</text>
<rect x="378" y="52" width="12" height="12" rx="2" fill="#60a5fa"/>
</svg>