<svg xmlns="http://www.w3.org/2000/svg" width="920" height="330" viewBox="0 0 920 330" font-family="Plus Jakarta Sans,Segoe UI,Arial,sans-serif">
<rect width="920" height="330" fill="#050a18"/>
<text x="78" y="26" fill="#e2e8f0" font-size="15" font-weight="700">CEL frozen weight at each macro re-optimisation (C LANDMINE)</text>
<line x1="78" y1="290.0" x2="904" y2="290.0" stroke="#18223a"/>
<text x="70" y="294.0" fill="#7a8ba5" font-size="11" text-anchor="end">0%</text>
<line x1="78" y1="216.7" x2="904" y2="216.7" stroke="#18223a"/>
<text x="70" y="220.7" fill="#7a8ba5" font-size="11" text-anchor="end">10%</text>
<line x1="78" y1="143.3" x2="904" y2="143.3" stroke="#18223a"/>
<text x="70" y="147.3" fill="#7a8ba5" font-size="11" text-anchor="end">20%</text>
<line x1="78" y1="70.0" x2="904" y2="70.0" stroke="#18223a"/>
<text x="70" y="74.0" fill="#7a8ba5" font-size="11" text-anchor="end">30%</text>
<rect x="92.0" y="290.0" width="35.6" height="0.0" fill="#18223a"/>
<text x="109.8" y="308" fill="#7a8ba5" font-size="9.5" text-anchor="middle" transform="rotate(-38 109.8 308)">20-03-23</text>
<rect x="155.5" y="290.0" width="35.6" height="0.0" fill="#18223a"/>
<text x="173.3" y="308" fill="#7a8ba5" font-size="9.5" text-anchor="middle" transform="rotate(-38 173.3 308)">20-09-19</text>
<rect x="219.1" y="159.4" width="35.6" height="130.6" fill="#06b6d4"/>
<text x="236.8" y="153.4" fill="#e2e8f0" font-size="11" text-anchor="middle">17.8</text>
<text x="236.8" y="308" fill="#7a8ba5" font-size="9.5" text-anchor="middle" transform="rotate(-38 236.8 308)">21-03-18</text>
<rect x="282.6" y="162.6" width="35.6" height="127.4" fill="#06b6d4"/>
<text x="300.4" y="156.6" fill="#e2e8f0" font-size="11" text-anchor="middle">17.4</text>
<text x="300.4" y="308" fill="#7a8ba5" font-size="9.5" text-anchor="middle" transform="rotate(-38 300.4 308)">21-09-14</text>
<rect x="346.1" y="290.0" width="35.6" height="0.0" fill="#18223a"/>
<text x="363.9" y="308" fill="#7a8ba5" font-size="9.5" text-anchor="middle" transform="rotate(-38 363.9 308)">22-03-13</text>
<rect x="409.7" y="290.0" width="35.6" height="0.0" fill="#18223a"/>
<text x="427.5" y="308" fill="#7a8ba5" font-size="9.5" text-anchor="middle" transform="rotate(-38 427.5 308)">22-09-09</text>
<rect x="473.2" y="290.0" width="35.6" height="0.0" fill="#18223a"/>
<text x="491.0" y="308" fill="#7a8ba5" font-size="9.5" text-anchor="middle" transform="rotate(-38 491.0 308)">23-03-08</text>
<rect x="536.7" y="290.0" width="35.6" height="0.0" fill="#18223a"/>
<text x="554.5" y="308" fill="#7a8ba5" font-size="9.5" text-anchor="middle" transform="rotate(-38 554.5 308)">23-09-04</text>
<rect x="600.3" y="290.0" width="35.6" height="0.0" fill="#18223a"/>
<text x="618.1" y="308" fill="#7a8ba5" font-size="9.5" text-anchor="middle" transform="rotate(-38 618.1 308)">24-03-02</text>
<rect x="663.8" y="290.0" width="35.6" height="0.0" fill="#18223a"/>
<text x="681.6" y="308" fill="#7a8ba5" font-size="9.5" text-anchor="middle" transform="rotate(-38 681.6 308)">24-08-29</text>
<rect x="727.4" y="287.1" width="35.6" height="2.9" fill="#06b6d4"/>
<text x="745.2" y="281.1" fill="#e2e8f0" font-size="11" text-anchor="middle">0.4</text>
<text x="745.2" y="308" fill="#7a8ba5" font-size="9.5" text-anchor="middle" transform="rotate(-38 745.2 308)">25-02-25</text>
<rect x="790.9" y="109.0" width="35.6" height="181.0" fill="#f87171"/>
<text x="808.7" y="103.0" fill="#e2e8f0" font-size="11" text-anchor="middle">24.7</text>
<text x="808.7" y="308" fill="#7a8ba5" font-size="9.5" text-anchor="middle" transform="rotate(-38 808.7 308)">25-08-24</text>
<rect x="854.4" y="290.0" width="35.6" height="0.0" fill="#18223a"/>
<text x="872.2" y="308" fill="#7a8ba5" font-size="9.5" text-anchor="middle" transform="rotate(-38 872.2 308)">26-02-20</text>
<text x="78" y="326" fill="#f87171" font-size="12">red = the anomaly re-opt (2025-08-24): dead token wins 24.7% of the frozen sleeve — ADV-K2 zeroes it</text></svg>
