<svg xmlns="http://www.w3.org/2000/svg" width="1040" height="602" viewBox="0 0 1040 602" font-family="Plus Jakarta Sans,Segoe UI,Arial,sans-serif">
<rect width="1040" height="602" fill="#050a18"/>
<text x="78" y="22" fill="#e2e8f0" font-size="15" font-weight="700">Parameter plateau — Calmar ratio, one knob at a time</text>
<text x="78" y="36" fill="#7a8ba5" font-size="10">each point: full walk-forward re-run with ONE knob moved, everything else at the production value; vertical line = production setting</text>
<rect x="88" y="64" width="300" height="210" fill="none" stroke="#18223a" stroke-width="1"/>
<line x1="122" y1="242.0" x2="370" y2="242.0" stroke="#18223a" stroke-width="1"/>
<text x="118" y="245.0" fill="#7a8ba5" font-size="9" text-anchor="end">-0.27</text>
<line x1="122" y1="168.0" x2="370" y2="168.0" stroke="#18223a" stroke-width="1"/>
<text x="118" y="171.0" fill="#7a8ba5" font-size="9" text-anchor="end">0.38</text>
<line x1="122" y1="94.0" x2="370" y2="94.0" stroke="#18223a" stroke-width="1"/>
<text x="118" y="97.0" fill="#7a8ba5" font-size="9" text-anchor="end">1.04</text>
<text x="122.0" y="270" fill="#7a8ba5" font-size="8.5" text-anchor="middle">90</text>
<text x="171.6" y="270" fill="#7a8ba5" font-size="8.5" text-anchor="middle">120</text>
<text x="221.2" y="270" fill="#7a8ba5" font-size="8.5" text-anchor="middle">150</text>
<text x="270.8" y="270" fill="#7a8ba5" font-size="8.5" text-anchor="middle">180</text>
<text x="320.4" y="270" fill="#7a8ba5" font-size="8.5" text-anchor="middle">210</text>
<text x="370.0" y="270" fill="#7a8ba5" font-size="8.5" text-anchor="middle">240</text>
<line x1="270.8" y1="94" x2="270.8" y2="242" stroke="#fbbf24" stroke-width="1" stroke-dasharray="3 3"/>
<polyline points="122.0,119.0 171.6,144.4 221.2,153.8 270.8,146.9 320.4,111.1 370.0,152.9" fill="none" stroke="#34d399" stroke-width="2"/>
<circle cx="122.0" cy="119.0" r="2.4" fill="#34d399"/>
<circle cx="171.6" cy="144.4" r="2.4" fill="#34d399"/>
<circle cx="221.2" cy="153.8" r="2.4" fill="#34d399"/>
<circle cx="270.8" cy="146.9" r="2.4" fill="#34d399"/>
<circle cx="320.4" cy="111.1" r="2.4" fill="#34d399"/>
<circle cx="370.0" cy="152.9" r="2.4" fill="#34d399"/>
<polyline points="122.0,209.5 171.6,206.9 221.2,224.9 270.8,198.1 320.4,219.9 370.0,218.4" fill="none" stroke="#06b6d4" stroke-width="2"/>
<circle cx="122.0" cy="209.5" r="2.4" fill="#06b6d4"/>
<circle cx="171.6" cy="206.9" r="2.4" fill="#06b6d4"/>
<circle cx="221.2" cy="224.9" r="2.4" fill="#06b6d4"/>
<circle cx="270.8" cy="198.1" r="2.4" fill="#06b6d4"/>
<circle cx="320.4" cy="219.9" r="2.4" fill="#06b6d4"/>
<circle cx="370.0" cy="218.4" r="2.4" fill="#06b6d4"/>
<polyline points="122.0,154.4 171.6,142.1 221.2,156.7 270.8,137.6 320.4,122.5 370.0,166.0" fill="none" stroke="#a855f7" stroke-width="2"/>
<circle cx="122.0" cy="154.4" r="2.4" fill="#a855f7"/>
<circle cx="171.6" cy="142.1" r="2.4" fill="#a855f7"/>
<circle cx="221.2" cy="156.7" r="2.4" fill="#a855f7"/>
<circle cx="270.8" cy="137.6" r="2.4" fill="#a855f7"/>
<circle cx="320.4" cy="122.5" r="2.4" fill="#a855f7"/>
<circle cx="370.0" cy="166.0" r="2.4" fill="#a855f7"/>
<text x="96" y="76" fill="#e2e8f0" font-size="11" font-weight="600">macro lookback (days)</text>
<rect x="374" y="64" width="300" height="210" fill="none" stroke="#18223a" stroke-width="1"/>
<line x1="408" y1="242.0" x2="656" y2="242.0" stroke="#18223a" stroke-width="1"/>
<text x="404" y="245.0" fill="#7a8ba5" font-size="9" text-anchor="end">-0.23</text>
<line x1="408" y1="168.0" x2="656" y2="168.0" stroke="#18223a" stroke-width="1"/>
<text x="404" y="171.0" fill="#7a8ba5" font-size="9" text-anchor="end">0.34</text>
<line x1="408" y1="94.0" x2="656" y2="94.0" stroke="#18223a" stroke-width="1"/>
<text x="404" y="97.0" fill="#7a8ba5" font-size="9" text-anchor="end">0.90</text>
<text x="408.0" y="270" fill="#7a8ba5" font-size="8.5" text-anchor="middle">90</text>
<text x="457.6" y="270" fill="#7a8ba5" font-size="8.5" text-anchor="middle">120</text>
<text x="507.2" y="270" fill="#7a8ba5" font-size="8.5" text-anchor="middle">150</text>
<text x="556.8" y="270" fill="#7a8ba5" font-size="8.5" text-anchor="middle">180</text>
<text x="606.4" y="270" fill="#7a8ba5" font-size="8.5" text-anchor="middle">210</text>
<text x="656.0" y="270" fill="#7a8ba5" font-size="8.5" text-anchor="middle">240</text>
<line x1="556.8" y1="94" x2="556.8" y2="242" stroke="#fbbf24" stroke-width="1" stroke-dasharray="3 3"/>
<polyline points="408.0,138.3 457.6,164.7 507.2,126.8 556.8,137.4 606.4,111.1 656.0,171.6" fill="none" stroke="#34d399" stroke-width="2"/>
<circle cx="408.0" cy="138.3" r="2.4" fill="#34d399"/>
<circle cx="457.6" cy="164.7" r="2.4" fill="#34d399"/>
<circle cx="507.2" cy="126.8" r="2.4" fill="#34d399"/>
<circle cx="556.8" cy="137.4" r="2.4" fill="#34d399"/>
<circle cx="606.4" cy="111.1" r="2.4" fill="#34d399"/>
<circle cx="656.0" cy="171.6" r="2.4" fill="#34d399"/>
<polyline points="408.0,223.7 457.6,212.0 507.2,224.9 556.8,196.8 606.4,208.6 656.0,202.1" fill="none" stroke="#06b6d4" stroke-width="2"/>
<circle cx="408.0" cy="223.7" r="2.4" fill="#06b6d4"/>
<circle cx="457.6" cy="212.0" r="2.4" fill="#06b6d4"/>
<circle cx="507.2" cy="224.9" r="2.4" fill="#06b6d4"/>
<circle cx="556.8" cy="196.8" r="2.4" fill="#06b6d4"/>
<circle cx="606.4" cy="208.6" r="2.4" fill="#06b6d4"/>
<circle cx="656.0" cy="202.1" r="2.4" fill="#06b6d4"/>
<polyline points="408.0,126.6 457.6,123.2 507.2,151.1 556.8,126.6 606.4,125.3 656.0,118.1" fill="none" stroke="#a855f7" stroke-width="2"/>
<circle cx="408.0" cy="126.6" r="2.4" fill="#a855f7"/>
<circle cx="457.6" cy="123.2" r="2.4" fill="#a855f7"/>
<circle cx="507.2" cy="151.1" r="2.4" fill="#a855f7"/>
<circle cx="556.8" cy="126.6" r="2.4" fill="#a855f7"/>
<circle cx="606.4" cy="125.3" r="2.4" fill="#a855f7"/>
<circle cx="656.0" cy="118.1" r="2.4" fill="#a855f7"/>
<text x="382" y="76" fill="#e2e8f0" font-size="11" font-weight="600">re-opt cadence (days)</text>
<rect x="660" y="64" width="300" height="210" fill="none" stroke="#18223a" stroke-width="1"/>
<line x1="694" y1="242.0" x2="942" y2="242.0" stroke="#18223a" stroke-width="1"/>
<text x="690" y="245.0" fill="#7a8ba5" font-size="9" text-anchor="end">-0.02</text>
<line x1="694" y1="168.0" x2="942" y2="168.0" stroke="#18223a" stroke-width="1"/>
<text x="690" y="171.0" fill="#7a8ba5" font-size="9" text-anchor="end">0.39</text>
<line x1="694" y1="94.0" x2="942" y2="94.0" stroke="#18223a" stroke-width="1"/>
<text x="690" y="97.0" fill="#7a8ba5" font-size="9" text-anchor="end">0.79</text>
<text x="694.0" y="270" fill="#7a8ba5" font-size="8.5" text-anchor="middle">0.53×</text>
<text x="748.2" y="270" fill="#7a8ba5" font-size="8.5" text-anchor="middle">1.00×</text>
<text x="787.0" y="270" fill="#7a8ba5" font-size="8.5" text-anchor="middle">1.33×</text>
<text x="864.5" y="270" fill="#7a8ba5" font-size="8.5" text-anchor="middle">2.00×</text>
<text x="942.0" y="270" fill="#7a8ba5" font-size="8.5" text-anchor="middle">2.67×</text>
<line x1="748.2" y1="94" x2="748.2" y2="242" stroke="#fbbf24" stroke-width="1" stroke-dasharray="3 3"/>
<polyline points="694.0,135.9 709.5,132.1 725.0,125.6 748.2,134.4 787.0,136.9 864.5,144.5 942.0,149.5" fill="none" stroke="#34d399" stroke-width="2"/>
<circle cx="694.0" cy="135.9" r="2.4" fill="#34d399"/>
<circle cx="709.5" cy="132.1" r="2.4" fill="#34d399"/>
<circle cx="725.0" cy="125.6" r="2.4" fill="#34d399"/>
<circle cx="748.2" cy="134.4" r="2.4" fill="#34d399"/>
<circle cx="787.0" cy="136.9" r="2.4" fill="#34d399"/>
<circle cx="864.5" cy="144.5" r="2.4" fill="#34d399"/>
<circle cx="942.0" cy="149.5" r="2.4" fill="#34d399"/>
<polyline points="694.0,223.1 709.5,222.5 725.0,224.9 748.2,217.5 787.0,212.3 864.5,208.3 942.0,212.1" fill="none" stroke="#06b6d4" stroke-width="2"/>
<circle cx="694.0" cy="223.1" r="2.4" fill="#06b6d4"/>
<circle cx="709.5" cy="222.5" r="2.4" fill="#06b6d4"/>
<circle cx="725.0" cy="224.9" r="2.4" fill="#06b6d4"/>
<circle cx="748.2" cy="217.5" r="2.4" fill="#06b6d4"/>
<circle cx="787.0" cy="212.3" r="2.4" fill="#06b6d4"/>
<circle cx="864.5" cy="208.3" r="2.4" fill="#06b6d4"/>
<circle cx="942.0" cy="212.1" r="2.4" fill="#06b6d4"/>
<polyline points="694.0,123.4 709.5,116.1 725.0,111.1 748.2,119.3 787.0,132.3 864.5,125.8 942.0,125.9" fill="none" stroke="#a855f7" stroke-width="2"/>
<circle cx="694.0" cy="123.4" r="2.4" fill="#a855f7"/>
<circle cx="709.5" cy="116.1" r="2.4" fill="#a855f7"/>
<circle cx="725.0" cy="111.1" r="2.4" fill="#a855f7"/>
<circle cx="748.2" cy="119.3" r="2.4" fill="#a855f7"/>
<circle cx="787.0" cy="132.3" r="2.4" fill="#a855f7"/>
<circle cx="864.5" cy="125.8" r="2.4" fill="#a855f7"/>
<circle cx="942.0" cy="125.9" r="2.4" fill="#a855f7"/>
<text x="668" y="76" fill="#e2e8f0" font-size="11" font-weight="600">drawdown reference (× prod)</text>
<rect x="88" y="292" width="300" height="210" fill="none" stroke="#18223a" stroke-width="1"/>
<line x1="122" y1="470.0" x2="370" y2="470.0" stroke="#18223a" stroke-width="1"/>
<text x="118" y="473.0" fill="#7a8ba5" font-size="9" text-anchor="end">-0.04</text>
<line x1="122" y1="396.0" x2="370" y2="396.0" stroke="#18223a" stroke-width="1"/>
<text x="118" y="399.0" fill="#7a8ba5" font-size="9" text-anchor="end">0.40</text>
<line x1="122" y1="322.0" x2="370" y2="322.0" stroke="#18223a" stroke-width="1"/>
<text x="118" y="325.0" fill="#7a8ba5" font-size="9" text-anchor="end">0.84</text>
<text x="122.0" y="498" fill="#7a8ba5" font-size="8.5" text-anchor="middle">0.38×</text>
<text x="178.4" y="498" fill="#7a8ba5" font-size="8.5" text-anchor="middle">1.00×</text>
<text x="223.5" y="498" fill="#7a8ba5" font-size="8.5" text-anchor="middle">1.50×</text>
<text x="291.1" y="498" fill="#7a8ba5" font-size="8.5" text-anchor="middle">2.25×</text>
<text x="370.0" y="498" fill="#7a8ba5" font-size="8.5" text-anchor="middle">3.12×</text>
<line x1="178.4" y1="322" x2="178.4" y2="470" stroke="#fbbf24" stroke-width="1" stroke-dasharray="3 3"/>
<polyline points="122.0,375.7 144.5,375.1 178.4,367.0 223.5,374.2 291.1,378.2 370.0,374.2" fill="none" stroke="#34d399" stroke-width="2"/>
<circle cx="122.0" cy="375.7" r="2.4" fill="#34d399"/>
<circle cx="144.5" cy="375.1" r="2.4" fill="#34d399"/>
<circle cx="178.4" cy="367.0" r="2.4" fill="#34d399"/>
<circle cx="223.5" cy="374.2" r="2.4" fill="#34d399"/>
<circle cx="291.1" cy="378.2" r="2.4" fill="#34d399"/>
<circle cx="370.0" cy="374.2" r="2.4" fill="#34d399"/>
<polyline points="122.0,447.6 144.5,446.4 178.4,443.3 223.5,439.2 291.1,442.9 370.0,452.9" fill="none" stroke="#06b6d4" stroke-width="2"/>
<circle cx="122.0" cy="447.6" r="2.4" fill="#06b6d4"/>
<circle cx="144.5" cy="446.4" r="2.4" fill="#06b6d4"/>
<circle cx="178.4" cy="443.3" r="2.4" fill="#06b6d4"/>
<circle cx="223.5" cy="439.2" r="2.4" fill="#06b6d4"/>
<circle cx="291.1" cy="442.9" r="2.4" fill="#06b6d4"/>
<circle cx="370.0" cy="452.9" r="2.4" fill="#06b6d4"/>
<polyline points="122.0,356.4 144.5,356.9 178.4,353.2 223.5,352.7 291.1,350.2 370.0,339.1" fill="none" stroke="#a855f7" stroke-width="2"/>
<circle cx="122.0" cy="356.4" r="2.4" fill="#a855f7"/>
<circle cx="144.5" cy="356.9" r="2.4" fill="#a855f7"/>
<circle cx="178.4" cy="353.2" r="2.4" fill="#a855f7"/>
<circle cx="223.5" cy="352.7" r="2.4" fill="#a855f7"/>
<circle cx="291.1" cy="350.2" r="2.4" fill="#a855f7"/>
<circle cx="370.0" cy="339.1" r="2.4" fill="#a855f7"/>
<text x="96" y="304" fill="#e2e8f0" font-size="11" font-weight="600">rebalance threshold (× prod)</text>
<rect x="374" y="292" width="300" height="210" fill="none" stroke="#18223a" stroke-width="1"/>
<line x1="408" y1="470.0" x2="656" y2="470.0" stroke="#18223a" stroke-width="1"/>
<text x="404" y="473.0" fill="#7a8ba5" font-size="9" text-anchor="end">0.01</text>
<line x1="408" y1="396.0" x2="656" y2="396.0" stroke="#18223a" stroke-width="1"/>
<text x="404" y="399.0" fill="#7a8ba5" font-size="9" text-anchor="end">0.40</text>
<line x1="408" y1="322.0" x2="656" y2="322.0" stroke="#18223a" stroke-width="1"/>
<text x="404" y="325.0" fill="#7a8ba5" font-size="9" text-anchor="end">0.79</text>
<text x="408.0" y="498" fill="#7a8ba5" font-size="8.5" text-anchor="middle">0.50×</text>
<text x="449.3" y="498" fill="#7a8ba5" font-size="8.5" text-anchor="middle">0.75×</text>
<text x="490.7" y="498" fill="#7a8ba5" font-size="8.5" text-anchor="middle">1.00×</text>
<text x="573.3" y="498" fill="#7a8ba5" font-size="8.5" text-anchor="middle">1.50×</text>
<text x="656.0" y="498" fill="#7a8ba5" font-size="8.5" text-anchor="middle">2.00×</text>
<line x1="490.7" y1="322" x2="490.7" y2="470" stroke="#fbbf24" stroke-width="1" stroke-dasharray="3 3"/>
<polyline points="408.0,370.1 449.3,367.3 490.7,364.3 573.3,371.6 656.0,369.3" fill="none" stroke="#34d399" stroke-width="2"/>
<circle cx="408.0" cy="370.1" r="2.4" fill="#34d399"/>
<circle cx="449.3" cy="367.3" r="2.4" fill="#34d399"/>
<circle cx="490.7" cy="364.3" r="2.4" fill="#34d399"/>
<circle cx="573.3" cy="371.6" r="2.4" fill="#34d399"/>
<circle cx="656.0" cy="369.3" r="2.4" fill="#34d399"/>
<polyline points="408.0,452.9 449.3,451.7 490.7,450.2 573.3,448.9 656.0,451.8" fill="none" stroke="#06b6d4" stroke-width="2"/>
<circle cx="408.0" cy="452.9" r="2.4" fill="#06b6d4"/>
<circle cx="449.3" cy="451.7" r="2.4" fill="#06b6d4"/>
<circle cx="490.7" cy="450.2" r="2.4" fill="#06b6d4"/>
<circle cx="573.3" cy="448.9" r="2.4" fill="#06b6d4"/>
<circle cx="656.0" cy="451.8" r="2.4" fill="#06b6d4"/>
<polyline points="408.0,339.1 449.3,340.4 490.7,348.7 573.3,348.8 656.0,344.9" fill="none" stroke="#a855f7" stroke-width="2"/>
<circle cx="408.0" cy="339.1" r="2.4" fill="#a855f7"/>
<circle cx="449.3" cy="340.4" r="2.4" fill="#a855f7"/>
<circle cx="490.7" cy="348.7" r="2.4" fill="#a855f7"/>
<circle cx="573.3" cy="348.8" r="2.4" fill="#a855f7"/>
<circle cx="656.0" cy="344.9" r="2.4" fill="#a855f7"/>
<text x="382" y="304" fill="#e2e8f0" font-size="11" font-weight="600">downside window (× prod)</text>
<rect x="660" y="292" width="300" height="210" fill="none" stroke="#18223a" stroke-width="1"/>
<line x1="694" y1="470.0" x2="942" y2="470.0" stroke="#18223a" stroke-width="1"/>
<text x="690" y="473.0" fill="#7a8ba5" font-size="9" text-anchor="end">0.04</text>
<line x1="694" y1="396.0" x2="942" y2="396.0" stroke="#18223a" stroke-width="1"/>
<text x="690" y="399.0" fill="#7a8ba5" font-size="9" text-anchor="end">0.38</text>
<line x1="694" y1="322.0" x2="942" y2="322.0" stroke="#18223a" stroke-width="1"/>
<text x="690" y="325.0" fill="#7a8ba5" font-size="9" text-anchor="end">0.73</text>
<text x="694.0" y="498" fill="#7a8ba5" font-size="8.5" text-anchor="middle">0.7</text>
<text x="776.7" y="498" fill="#7a8ba5" font-size="8.5" text-anchor="middle">0.8</text>
<text x="859.3" y="498" fill="#7a8ba5" font-size="8.5" text-anchor="middle">0.9</text>
<text x="900.7" y="498" fill="#7a8ba5" font-size="8.5" text-anchor="middle">0.95</text>
<text x="942.0" y="498" fill="#7a8ba5" font-size="8.5" text-anchor="middle">1</text>
<line x1="900.7" y1="322" x2="900.7" y2="470" stroke="#fbbf24" stroke-width="1" stroke-dasharray="3 3"/>
<polyline points="694.0,356.6 776.7,356.6 859.3,356.6 900.7,356.6 942.0,356.6" fill="none" stroke="#34d399" stroke-width="2"/>
<circle cx="694.0" cy="356.6" r="2.4" fill="#34d399"/>
<circle cx="776.7" cy="356.6" r="2.4" fill="#34d399"/>
<circle cx="859.3" cy="356.6" r="2.4" fill="#34d399"/>
<circle cx="900.7" cy="356.6" r="2.4" fill="#34d399"/>
<circle cx="942.0" cy="356.6" r="2.4" fill="#34d399"/>
<polyline points="694.0,452.9 776.7,452.9 859.3,452.9 900.7,452.9 942.0,452.9" fill="none" stroke="#06b6d4" stroke-width="2"/>
<circle cx="694.0" cy="452.9" r="2.4" fill="#06b6d4"/>
<circle cx="776.7" cy="452.9" r="2.4" fill="#06b6d4"/>
<circle cx="859.3" cy="452.9" r="2.4" fill="#06b6d4"/>
<circle cx="900.7" cy="452.9" r="2.4" fill="#06b6d4"/>
<circle cx="942.0" cy="452.9" r="2.4" fill="#06b6d4"/>
<polyline points="694.0,339.1 776.7,339.1 859.3,339.1 900.7,339.1 942.0,339.1" fill="none" stroke="#a855f7" stroke-width="2"/>
<circle cx="694.0" cy="339.1" r="2.4" fill="#a855f7"/>
<circle cx="776.7" cy="339.1" r="2.4" fill="#a855f7"/>
<circle cx="859.3" cy="339.1" r="2.4" fill="#a855f7"/>
<circle cx="900.7" cy="339.1" r="2.4" fill="#a855f7"/>
<circle cx="942.0" cy="339.1" r="2.4" fill="#a855f7"/>
<text x="668" y="304" fill="#e2e8f0" font-size="11" font-weight="600">risk budget</text>
<rect x="568.8" y="550" width="14" height="4" fill="#34d399"/>
<text x="588.8" y="558" fill="#e2e8f0" font-size="11">A MAJORS+GOLD</text>
<rect x="695.4" y="550" width="14" height="4" fill="#06b6d4"/>
<text x="715.4" y="558" fill="#e2e8f0" font-size="11">B 2019-20 GEN</text>
<rect x="822.0" y="550" width="14" height="4" fill="#a855f7"/>
<text x="842.0" y="558" fill="#e2e8f0" font-size="11">C LANDMINE</text>
<text x="78" y="584" fill="#7a8ba5" font-size="9">amber line = production setting (1.00×)  |  ×-prod axes hide absolute constants; only the multiple of the shipped value is shown</text>
</svg>
